<svg width="548" height="91" viewBox="0 0 548 91" fill="none" xmlns="http://www.w3.org/2000/svg">
<g clip-path="url(#clip0)">
<path d="M135.949 70.7114L127.071 57.3049H121.511V70.7114H113.193V28.5455H125.968C131.204 28.5455 135.26 29.816 138.136 32.357C141.011 34.898 142.46 38.3654 142.483 42.7593C142.496 45.2846 141.936 47.7801 140.846 50.0579C139.77 52.3196 138.017 54.1912 135.831 55.4139L145.639 70.7114H135.949ZM121.511 49.2838H127.41C129.664 49.2838 131.306 48.6252 132.336 47.308C133.327 46.1054 133.874 44.598 133.884 43.0395C133.876 41.4825 133.419 39.9609 132.568 38.6566C131.695 37.2633 129.996 36.5666 127.469 36.5666H121.511V49.2838Z" fill="#2F3341"/>
<path d="M182.14 28.5455V36.5666H161.677V45.5608H179.784V53.5819H161.677V62.6903H182.937V70.7114H153.381V28.5455H182.14Z" fill="#2F3341"/>
<path d="M227.289 28.5455L208.035 72.6577L188.777 28.5455H198.732L208.359 52.3212L217.415 28.5455H227.289Z" fill="#2F3341"/>
<path d="M264.189 28.5455V36.5666H243.733V45.5608H261.84V53.5819H243.733V62.6903H264.992V70.7114H235.426V28.5455H264.189Z" fill="#2F3341"/>
<path d="M312.437 28.5455V72.4292H312.209L282.712 45.7893L282.882 70.7114H274.446V26.8868H274.789L304.241 53.9247L304.071 28.5455H312.437Z" fill="#2F3341"/>
<path d="M332.834 58.9784C333.652 60.2131 334.753 61.2343 336.046 61.9568C337.351 62.7122 338.833 63.1078 340.341 63.1032C341.924 63.118 343.484 62.7231 344.869 61.9568C346.181 61.2515 347.294 60.2272 348.106 58.9784C348.863 57.8407 349.271 56.5073 349.282 55.1411V28.5455H357.475V55.2922C357.513 58.1779 356.717 61.0131 355.181 63.457C353.663 65.8761 351.514 67.836 348.965 69.1263C346.293 70.4643 343.345 71.1609 340.356 71.1609C337.367 71.1609 334.419 70.4643 331.747 69.1263C329.214 67.8332 327.084 65.8728 325.585 63.457C324.071 61.0058 323.287 58.1734 323.325 55.2922V28.5455H331.632V55.13C331.641 56.5037 332.06 57.8435 332.834 58.9784V58.9784Z" fill="#2F3341"/>
<path d="M397.129 28.5455V36.5666H376.67V45.5608H394.781V53.5819H376.67V62.6903H397.93V70.7114H368.363V28.5455H397.129Z" fill="#2F3341"/>
<path d="M438.126 68.6182C436.354 69.4045 434.512 70.0216 432.625 70.4612C430.835 70.9098 428.999 71.1498 427.153 71.1764C422.684 71.1764 418.759 70.3077 415.377 68.5702C412.134 66.9611 409.42 64.4564 407.556 61.3528C405.694 58.1666 404.742 54.5299 404.806 50.8399C404.806 45.9102 405.781 41.7326 407.73 38.3069C409.532 35.031 412.263 32.3609 415.58 30.6324C418.948 28.9124 422.685 28.037 426.467 28.0816C428.9 28.0672 431.325 28.3557 433.687 28.9404C435.755 29.4454 437.755 30.1953 439.645 31.1742L436.953 38.9152C435.505 38.1781 433.975 37.6116 432.396 37.2269C430.822 36.7651 429.195 36.505 427.555 36.4528C422.973 36.4528 419.468 37.5992 417.04 39.892C414.611 42.1848 413.398 45.5834 413.4 50.0879C413.34 52.4716 413.95 54.8243 415.163 56.8778C416.351 58.8015 418.072 60.3383 420.118 61.3012C422.384 62.3653 424.864 62.8949 427.367 62.8493C429.968 62.8493 431.897 62.4807 433.156 61.7435V56.675H425.892V48.6577H441.595V66.4765C440.934 67.1597 439.778 67.8736 438.126 68.6182Z" fill="#2F3341"/>
<path d="M474.657 70.7114L465.775 57.3049H460.215V70.7114H451.908V28.5455H464.684C469.919 28.5455 473.975 29.816 476.851 32.357C479.727 34.898 481.172 38.3654 481.187 42.7593C481.204 45.2858 480.645 47.7829 479.553 50.0616C478.478 52.3223 476.727 54.1937 474.543 55.4176L484.339 70.7151L474.657 70.7114ZM460.215 49.2838H466.114C468.366 49.2838 470.009 48.6252 471.044 47.308C472.033 46.1042 472.578 44.5973 472.589 43.0395C472.58 41.4825 472.123 39.9609 471.272 38.6566C470.39 37.2633 468.69 36.5666 466.173 36.5666H460.211L460.215 49.2838Z" fill="#2F3341"/>
<path d="M500.381 28.5455V70.7114H492.074V28.5455H500.381Z" fill="#2F3341"/>
<path d="M512.132 28.5455H524.738C530.124 28.5455 534.556 29.5862 538.034 31.6677C541.512 33.7491 544.042 36.4425 545.625 39.7477C547.214 43.064 548.027 46.698 548.004 50.3749C548.004 54.4223 547.049 57.9929 545.139 61.0869C543.28 64.1316 540.612 66.6008 537.433 68.2196C534.142 69.894 530.495 70.7489 526.803 70.7114H512.132V28.5455ZM525.369 62.6903C529.685 62.6903 533.104 61.5845 535.626 59.3728C538.148 57.1611 539.409 53.9664 539.409 49.7888C539.409 46.432 538.712 43.7583 537.319 41.7677C535.925 39.7772 534.301 38.4023 532.448 37.6429C530.792 36.9228 529.011 36.5346 527.205 36.5002H520.443V62.6719L525.369 62.6903Z" fill="#2F3341"/>
<path d="M17.8086 75.7136L18.31 75.3192C16.7068 74.3687 15.5453 72.8222 15.0796 71.0179C14.6139 69.2136 14.8819 67.2983 15.8249 65.691C16.1298 65.1692 16.5017 64.6897 16.9311 64.2644L39.1825 42.0222C39.7798 35.1844 41.2214 26.9974 43.8503 16.7462L8.76792 51.8089C6.6368 53.9211 4.50568 55.6609 2.98292 58.2707C1.25739 61.211 0.249034 64.5164 0.0395636 67.919C-0.169907 71.3216 0.425405 74.7256 1.77725 77.8553C10.534 79.831 14.7262 78.0985 17.8086 75.7136Z" fill="#79A35A"/>
<path d="M39.9455 61.2273L27.8261 73.3547C25.618 75.5772 23.2508 77.6359 20.7433 79.5143C17.2922 82.1867 13.3692 83.5322 8.53912 83.5322C7.40995 83.5221 6.28231 83.447 5.16177 83.3073C7.03023 85.5134 9.31985 87.325 11.8968 88.6362C14.4737 89.9473 17.2862 90.7317 20.1699 90.9435C23.0536 91.1552 25.9506 90.7901 28.6915 89.8695C31.4324 88.9488 33.9622 87.4912 36.1331 85.5817C36.476 85.2794 36.8078 84.9661 37.1323 84.6417L44.5654 77.2141L44.0418 75.6475C42.4011 70.8371 40.9262 66.351 39.9455 61.2273Z" fill="#F37145"/>
<path d="M61.0059 20.1929L66.8057 25.9654L71.0716 0.000152588L44.7829 4.0328L50.6822 9.90115C47.5998 20.6721 45.6899 29.3345 44.6649 36.5299L61.0059 20.1929Z" fill="#5E95C9"/>
<path d="M60.6706 40.4886L52.9794 48.1779L59.4576 54.6545C59.9605 55.1576 60.5578 55.5567 61.2151 55.829C61.8724 56.1013 62.5769 56.2415 63.2884 56.2415C63.9999 56.2415 64.7044 56.1013 65.3618 55.829C66.0191 55.5567 66.6163 55.1576 67.1193 54.6545L67.1488 54.6213C67.6519 54.1188 68.051 53.522 68.3233 52.8652C68.5956 52.2084 68.7358 51.5043 68.7358 50.7933C68.7358 50.0822 68.5956 49.3782 68.3233 48.7213C68.051 48.0645 67.6519 47.4677 67.1488 46.9652L60.6706 40.4886Z" fill="#5E95C9"/>
</g>
<defs>
<clipPath id="clip0">
<path d="M0 0H548V91H0V0Z" fill="white"/>
</clipPath>
</defs>
</svg>
